<svg xmlns="http://www.w3.org/2000/svg" width="65.625" height="17.149" viewBox="0 0 65.625 17.149">
  <g id="Group_964" data-name="Group 964" transform="translate(-61.134 -633)">
    <path id="Path_390" data-name="Path 390" d="M16.04,1.589a6.608,6.608,0,0,1-1.132.38A3.565,3.565,0,0,0,15.84.484h0a.185.185,0,0,0-.272-.216h0a6.6,6.6,0,0,1-1.729.716A.5.5,0,0,1,13.731,1a.451.451,0,0,1-.3-.116A3.536,3.536,0,0,0,11.086,0a3.867,3.867,0,0,0-1.12.172A3.433,3.433,0,0,0,7.657,2.641a3.794,3.794,0,0,0-.084,1.3.129.129,0,0,1-.032.1.128.128,0,0,1-.1.044H7.433A9.271,9.271,0,0,1,1.054.68h0A.186.186,0,0,0,.75.7h0a3.538,3.538,0,0,0,.576,4.3,3.314,3.314,0,0,1-.808-.312h0a.186.186,0,0,0-.276.16h0A3.549,3.549,0,0,0,2.307,8.119H2.231a3.306,3.306,0,0,1-.6-.056h0a.187.187,0,0,0-.212.24h0a3.543,3.543,0,0,0,2.8,2.413A6.526,6.526,0,0,1,.566,11.828H.158a.27.27,0,0,0-.264.2.277.277,0,0,0,.136.308,9.72,9.72,0,0,0,4.882,1.316,9.825,9.825,0,0,0,4.17-.884,9.248,9.248,0,0,0,3.053-2.285A10.026,10.026,0,0,0,14,7.359a9.86,9.86,0,0,0,.636-3.425V3.881a.612.612,0,0,1,.224-.468,6.994,6.994,0,0,0,1.409-1.545h0a.19.19,0,0,0-.232-.28Z" transform="translate(81.783 635)" fill="#649ab8" opacity="0.98"/>
    <g id="Group_713" data-name="Group 713" transform="translate(109.617 633)" opacity="0.98">
      <path id="Path_370" data-name="Path 370" d="M11.785,0H5.357A5.355,5.355,0,0,0,0,5.357v6.428a5.355,5.355,0,0,0,5.357,5.357h6.428a5.355,5.355,0,0,0,5.357-5.357V5.357A5.355,5.355,0,0,0,11.785,0Zm3.75,11.785a3.752,3.752,0,0,1-3.75,3.75H5.357a3.752,3.752,0,0,1-3.75-3.75V5.357a3.752,3.752,0,0,1,3.75-3.75h6.428a3.752,3.752,0,0,1,3.75,3.75Z" fill="#649ab8"/>
      <path id="Path_371" data-name="Path 371" d="M132.286,128a4.285,4.285,0,1,0,4.286,4.286A4.285,4.285,0,0,0,132.286,128Zm0,6.964a2.678,2.678,0,1,1,2.678-2.678A2.682,2.682,0,0,1,132.286,134.964Z" transform="translate(-123.714 -123.715)" fill="#649ab8"/>
      <ellipse id="Ellipse_20" data-name="Ellipse 20" cx="0.573" cy="0.573" rx="0.573" ry="0.573" transform="translate(12.605 3.392)" fill="#649ab8"/>
    </g>
    <path id="Path_391" data-name="Path 391" d="M.278,9.033H2.156v7.737a.277.277,0,0,0,.278.278H5.621a.277.277,0,0,0,.278-.278V9.07H8.059a.275.275,0,0,0,.275-.244l.328-2.849a.276.276,0,0,0-.275-.308H5.9V3.884c0-.539.291-.81.86-.81H8.387A.277.277,0,0,0,8.665,2.8V.181A.277.277,0,0,0,8.387-.1H6.144c-.017,0-.05,0-.1,0A4.3,4.3,0,0,0,3.231.958,2.95,2.95,0,0,0,2.25,3.58V5.669H.278A.277.277,0,0,0,0,5.947V8.759A.277.277,0,0,0,.278,9.033Z" transform="translate(61.134 633.1)" fill="#649ab8" opacity="0.98"/>
  </g>
</svg>
